# xmcd CD database file
#
# Track frame offsets:
#	150
#	21804
#	40262
#	67019
#	84569
#	105125
#	118759
#	136676
#	151611
#	172379
#	183084
#	203514
#	223664
#	240537
#	250617
#
# Disc length: 3718 seconds
#
# Revision: 1
# Processed by: cddbd v1.5.2PL0 Copyright (c) Steve Scherf et al.
# Submitted via: CDex 1.70beta2
#
DISCID=bc0e840f
DTITLE=Pippo Matino -  Bass&Voice Project (ft. Silvia Barba)
DYEAR=2010
DGENRE=Jazz
TTITLE0=La musica che gira intorno
TTITLE1=Sardinia
TTITLE2=Summertime
TTITLE3=Regalami di te
TTITLE4=Bang bang #1
TTITLE5=My clouds
TTITLE6=Master blaster
TTITLE7=La canzone dei vecchi amanti
TTITLE8=Futura
TTITLE9=Lontano
TTITLE10=Reginella
TTITLE11=Gioia
TTITLE12=Grapefruit moon
TTITLE13=Bang bang #2
TTITLE14=Time after time
EXTD=YEAR: 2010
EXTT0=
EXTT1=
EXTT2=
EXTT3=
EXTT4=
EXTT5=
EXTT6=
EXTT7=
EXTT8=
EXTT9=
EXTT10=
EXTT11=
EXTT12=
EXTT13=
EXTT14=
PLAYORDER=
